<svg width="86" height="81" viewBox="0 0 86 81" fill="none" xmlns="http://www.w3.org/2000/svg">
<rect x="4" width="79" height="81" rx="10" fill="#2900CE"/>
<path d="M22.1615 63.6C16.0015 63.6 11.3615 62.2 8.24148 59.4C5.16148 56.56 3.62148 52.02 3.62148 45.78V30.18L3.68148 24.12L3.62148 20.52H14.5415V44.58C14.5415 47.38 15.1015 49.66 16.2215 51.42C17.3415 53.14 19.3215 54 22.1615 54C25.0015 54 27.0015 53.2 28.1615 51.6C29.3615 49.96 29.9615 47.62 29.9615 44.58V20.52H40.7015V45.78C40.7015 51.9 39.1815 56.4 36.1415 59.28C33.1415 62.16 28.4815 63.6 22.1615 63.6ZM68.2584 63.6C65.5384 63.6 62.8984 63.3 60.3384 62.7C57.7784 62.06 55.4584 60.94 53.3784 59.34C51.3384 57.74 49.7184 55.52 48.5184 52.68C47.3184 49.84 46.7184 46.2 46.7184 41.76C46.7184 37.64 47.3184 34.18 48.5184 31.38C49.7184 28.58 51.3184 26.34 53.3184 24.66C55.3184 22.98 57.4984 21.78 59.8584 21.06C62.2584 20.3 64.6584 19.92 67.0584 19.92C69.0984 19.92 71.0784 20.08 72.9984 20.4C74.9584 20.72 76.3784 21.08 77.2584 21.48L83.9184 26.94L78.5184 35.64L68.2584 30.36C65.4184 30.36 63.0184 31.3 61.0584 33.18C59.0984 35.02 58.1184 37.88 58.1184 41.76C58.1184 44.52 58.5984 46.76 59.5584 48.48C60.5584 50.2 61.9184 51.46 63.6384 52.26C65.3584 53.06 67.3184 53.46 69.5184 53.46C71.8384 53.46 73.8184 53.28 75.4584 52.92C77.0984 52.52 78.5384 52.06 79.7784 51.54C81.0184 50.98 82.1984 50.44 83.3184 49.92V60C81.9184 60.88 80.0584 61.7 77.7384 62.46C75.4184 63.22 72.2584 63.6 68.2584 63.6Z" fill="white"/>
</svg>
